# xmcd
#
# Track frame offsets:
#	150
#	21287
#	40187
#	56955
#	84180
#	105905
#	121050
#	156507
#	188112
#	198135
#	220215
#	245325
#
# Disc length: 3423 seconds
#
# Revision: 1
# Processed by: cddbd v1.5.1PL0 Copyright (c) Steve Scherf et al.
# Submitted via: CDex 1.50Beta5
#
DISCID=980d5d0c
DTITLE=ヨハン・セバスティアン・バッハ - 無伴奏チェロ組曲 第三番ハ長調 第五番ハ短調
DYEAR=1900
DGENRE=
TTITLE0=第一曲 Prelude
TTITLE1=第二曲 Allemande
TTITLE2=第三曲 Courante
TTITLE3=第四曲 Sarabande
TTITLE4=第五曲 Bourree I-II-III
TTITLE5=第六曲 Gigue
TTITLE6=第一曲 Prelude
TTITLE7=第二曲 Allemande
TTITLE8=第三曲 Courante
TTITLE9=第四曲 Sarabande
TTITLE10=第五曲 Gavotte I-II-III
TTITLE11=第六曲 Gigue
EXTD=
EXTT0=
EXTT1=
EXTT2=
EXTT3=
EXTT4=
EXTT5=
EXTT6=
EXTT7=
EXTT8=
EXTT9=
EXTT10=
EXTT11=
PLAYORDER=
